Coordinates
version=1
nRows=60
nColumns=12
inDegrees=yes

Units are S.I. units (second, meters, Newtons, ...)
Angles are in degrees

endheader
time	SC_y	SC_z	SC_x	AC_y	AC_z	AC_x	GH_y	GH_z	GH_yy	EL_x	PS_y
       0.0               -26.6          1.935          8.405          58.14         -14.09         -4.965          164.6         0.8134          130.8          105.4          10.16
   0.01066              -26.61          1.936          8.414          58.14         -14.09         -4.963          164.6         0.8245          130.8          105.4          10.17
   0.02132              -26.61          1.936          8.424          58.13         -14.09         -4.961          164.6         0.8364          130.8          105.4          10.18
   0.03198              -26.62          1.937          8.434          58.13         -14.09         -4.958          164.5          0.849          130.7          105.4          10.18
   0.04264              -26.62          1.938          8.445          58.13         -14.08         -4.956          164.5         0.8625          130.7          105.4          10.19
    0.0533              -26.63          1.938          8.457          58.12         -14.08         -4.953          164.5         0.8768          130.7          105.4           10.2
   0.06396              -26.63          1.939          8.469          58.12         -14.08          -4.95          164.4         0.8921          130.6          105.4          10.21
   0.07462              -26.64           1.94          8.482          58.11         -14.08         -4.947          164.4         0.9084          130.6          105.3          10.21
   0.08528              -26.65          1.941          8.497           58.1         -14.08         -4.943          164.3         0.9259          130.5          105.3          10.22
   0.09594              -26.65          1.942          8.512           58.1         -14.08          -4.94          164.3         0.9447          130.5          105.3          10.23
    0.1066              -26.66          1.943          8.528          58.09         -14.08         -4.936          164.2         0.9649          130.4          105.3          10.24
    0.1173              -26.67          1.944          8.546          58.08         -14.08         -4.931          164.2         0.9866          130.3          105.3          10.26
    0.1279              -26.68          1.945          8.565          58.07         -14.07         -4.927          164.1           1.01          130.3          105.2          10.27
    0.1386              -26.69          1.946          8.586          58.06         -14.07         -4.922          164.1          1.035          130.2          105.2          10.28
    0.1492               -26.7          1.948          8.608          58.05         -14.07         -4.917          164.0          1.063          130.1          105.2           10.3
    0.1599              -26.71          1.949          8.633          58.04         -14.07         -4.911          163.9          1.092          130.0          105.1          10.31
    0.1706              -26.72          1.951          8.659          58.03         -14.07         -4.904          163.8          1.125          129.9          105.1          10.33
    0.1812              -26.73          1.952          8.688          58.02         -14.06         -4.898          163.7           1.16          129.8          105.1          10.35
    0.1919              -26.75          1.954          8.719          58.01         -14.06          -4.89          163.6          1.198          129.7          105.0          10.37
    0.2025              -26.77          1.956          8.753          57.99         -14.06         -4.882          163.5           1.24          129.6          105.0          10.39
    0.2132              -26.78          1.959          8.791          57.98         -14.05         -4.873          163.4          1.286          129.5          104.9          10.42
    0.2239               -26.8          1.961          8.832          57.96         -14.05         -4.863          163.3          1.337          129.3          104.9          10.44
    0.2345              -26.82          1.964          8.878          57.94         -14.05         -4.852          163.1          1.393          129.1          104.8          10.47
    0.2452              -26.85          1.967          8.929          57.92         -14.04          -4.84          163.0          1.455          129.0          104.8          10.51
    0.2558              -26.87          1.971          8.985          57.89         -14.04         -4.827          162.8          1.524          128.8          104.7          10.54
    0.2665               -26.9          1.974          9.048          57.86         -14.03         -4.812          162.6          1.601          128.5          104.6          10.58
    0.2772              -26.94          1.979          9.119          57.83         -14.03         -4.795          162.4          1.688          128.3          104.5          10.63
    0.2878              -26.97          1.984          9.198           57.8         -14.02         -4.776          162.1          1.785          128.0          104.4          10.68
    0.2985              -27.02          1.989          9.288          57.76         -14.01         -4.755          161.9          1.894          127.7          104.3          10.74
    0.3091              -27.06          1.995          9.389          57.72          -14.0          -4.73          161.6          2.019          127.3          104.1          10.81
    0.3198              -27.12          2.002          9.506          57.67         -13.99         -4.703          161.2          2.161          126.9          104.0          10.88
    0.3305              -27.18           2.01          9.639          57.61         -13.98         -4.671          160.8          2.324          126.4          103.8          10.97
    0.3411              -27.25           2.02          9.793          57.54         -13.97         -4.634          160.3          2.513          125.9          103.6          11.07
    0.3518              -27.34          2.031          9.972          57.47         -13.95         -4.592          159.7          2.732          125.2          103.4          11.19
    0.3624              -27.43          2.044          10.18          57.37         -13.93         -4.542          159.1          2.988          124.5          103.1          11.32
    0.3731              -27.55          2.059          10.43          57.27         -13.91         -4.483          158.3           3.29          123.6          102.8          11.49
    0.3838              -27.69          2.076          10.72          57.14         -13.89         -4.413          157.4          3.648          122.5          102.4          11.68
    0.3944              -27.85          2.098          11.07          56.99         -13.86         -4.329          156.3          4.079          121.3          101.9          11.91
    0.4051              -28.05          2.124           11.5          56.81         -13.82         -4.228          155.0          4.599          119.7          101.4          12.18
    0.4158              -28.29          2.155          12.02          56.58         -13.77         -4.104          153.4          5.235          117.9          100.7          12.52
    0.4264              -28.59          2.195          12.66           56.3         -13.72         -3.951          151.4          6.019          115.6          99.86          12.94
    0.4371              -28.97          2.243          13.46          55.96         -13.65         -3.761          148.9          6.997          112.7          98.81          13.46
    0.4477              -29.44          2.305          14.46          55.52         -13.56         -3.521          145.8           8.23          109.1          97.49          14.12
    0.4584              -30.04          2.383          15.74          54.97         -13.45         -3.216          141.8          9.796          104.5          95.81          14.96
    0.4691              -30.81          2.483          17.38          54.26         -13.31         -2.826          136.7           11.8          98.59          93.66          16.03
    0.4797              -31.79          2.611          19.48          53.35         -13.13         -2.325          130.1          14.37          91.04           90.9           17.4
    0.4904              -33.05          2.775          22.17          52.19         -12.89         -1.685          121.8          17.66          81.39          87.38          19.16
     0.501              -34.63          2.981          25.54          50.73          -12.6        -0.8798          111.3          21.79          69.26          82.95          21.36
    0.5117              -36.56          3.232          29.66          48.95         -12.24         0.1008          98.48          26.83          54.48          77.55          24.05
    0.5224              -38.79          3.523          34.43          46.89         -11.83          1.238          83.65          32.67          37.34          71.29          27.17
     0.533              -41.21          3.838          39.59          44.65         -11.38          2.468          67.58          38.99          18.79          64.51          30.54
    0.5437              -43.63          4.153          44.75          42.42         -10.93          3.699          51.51          45.31         0.2353          57.74          33.91
    0.5543              -45.86          4.444          49.52          40.36         -10.52          4.836          36.67          51.15          -16.9          51.48          37.03
     0.565              -47.79          4.695          53.63          38.58         -10.16          5.817          23.87          56.19         -31.68          46.08          39.72
    0.5757              -49.37          4.901          57.01          37.12         -9.869          6.621          13.36          60.32         -43.81          41.65          41.92
    0.5863              -50.63          5.065           59.7          35.96         -9.636          7.261          5.009          63.61         -53.46          38.13          43.68
     0.597              -51.61          5.193           61.8          35.05         -9.454          7.762         -1.532          66.18         -61.01          35.37          45.05
    0.6076              -52.38          5.293          63.44          34.34         -9.312          8.153         -6.629          68.18          -66.9          33.22          46.12
    0.6183              -52.98          5.371          64.72          33.78         -9.201          8.458         -10.61          69.75          -71.5          31.54          46.96
     0.629              -53.45          5.432          65.72          33.35         -9.113          8.698         -13.74          70.98         -75.11          30.22          47.62
